<svg width="31" height="31" viewBox="0 0 31 31" fill="none" xmlns="http://www.w3.org/2000/svg">
<path d="M17.2102 10.8965L12.2644 15.7454C11.7942 16.2104 11.5359 16.8459 11.5462 17.5137C11.5603 18.1893 11.8385 18.8324 12.3212 19.3053C12.8056 19.7845 13.4579 20.0596 14.1334 20.0712C14.4641 20.0782 14.7929 20.0189 15.1003 19.8969C15.4078 19.7749 15.6877 19.5926 15.9237 19.3608L20.8682 14.5119C21.3347 14.0504 21.7025 13.499 21.9494 12.891C22.1963 12.2831 22.3171 11.6313 22.3045 10.9753C22.2773 9.62411 21.7218 8.33736 20.7571 7.39093C19.7897 6.43362 18.4909 5.8855 17.1301 5.8603C16.4694 5.84712 15.8127 5.96575 15.1984 6.20926C14.584 6.45277 14.0244 6.81629 13.5522 7.27855L8.6038 12.1288C7.90463 12.8213 7.35329 13.6485 6.98318 14.5604C6.61307 15.4722 6.43188 16.4497 6.45059 17.4336C6.49219 19.4599 7.32589 21.3893 8.77301 22.8083C10.2234 24.2439 12.1706 25.0662 14.2109 25.1048C15.2024 25.1255 16.188 24.9481 17.11 24.583C18.032 24.2179 18.8718 23.6725 19.5804 22.9788L24.5262 18.1273" stroke="white" strokeWidth="2" strokeLinecap="round" strokeLinejoin="round"/>
<path d="M17.2102 10.8965L12.2644 15.7454C11.7942 16.2104 11.5359 16.8459 11.5462 17.5137C11.5603 18.1893 11.8385 18.8324 12.3212 19.3053C12.8056 19.7845 13.4579 20.0596 14.1334 20.0712C14.4641 20.0782 14.7929 20.0189 15.1003 19.8969C15.4078 19.7749 15.6877 19.5926 15.9237 19.3608L20.8682 14.5119C21.3347 14.0504 21.7025 13.499 21.9494 12.891C22.1963 12.2831 22.3171 11.6313 22.3045 10.9753C22.2773 9.62411 21.7218 8.33736 20.7571 7.39093C19.7897 6.43362 18.4909 5.8855 17.1301 5.8603C16.4694 5.84712 15.8127 5.96575 15.1984 6.20926C14.584 6.45277 14.0244 6.81629 13.5522 7.27855L8.6038 12.1288C7.90463 12.8213 7.35329 13.6485 6.98318 14.5604C6.61307 15.4722 6.43188 16.4497 6.45059 17.4336C6.49219 19.4599 7.32589 21.3893 8.77301 22.8083C10.2234 24.2439 12.1706 25.0662 14.2109 25.1048C15.2024 25.1255 16.188 24.9481 17.11 24.583C18.032 24.2179 18.8718 23.6725 19.5804 22.9788L24.5262 18.1273" stroke="white" strokeWidth="2" strokeLinecap="round" strokeLinejoin="round"/>
</svg>
